<?xml version="1.0" encoding="UTF-8"?>
<svg xmlns="http://www.w3.org/2000/svg" xmlns:xlink="http://www.w3.org/1999/xlink" width="335px" height="335px" viewBox="0 0 335 335" version="1.1">
<defs>
<g>
<symbol overflow="visible" id="glyph0-0">
<path style="stroke:none;" d="M 0.671875 2.375 L 0.671875 -9.453125 L 7.375 -9.453125 L 7.375 2.375 Z M 1.421875 1.625 L 6.625 1.625 L 6.625 -8.703125 L 1.421875 -8.703125 Z M 1.421875 1.625 "/>
</symbol>
<symbol overflow="visible" id="glyph0-1">
<path style="stroke:none;" d="M 1.25 -0.46875 L 1.25 -2.703125 L 2 -2.6875 C 2.019531 -1.945312 2.234375 -1.398438 2.640625 -1.046875 C 3.046875 -0.691406 3.664062 -0.515625 4.5 -0.515625 C 5.28125 -0.515625 5.875 -0.664062 6.28125 -0.96875 C 6.6875 -1.28125 6.890625 -1.726562 6.890625 -2.3125 C 6.890625 -2.789062 6.765625 -3.15625 6.515625 -3.40625 C 6.273438 -3.65625 5.757812 -3.898438 4.96875 -4.140625 L 3.671875 -4.53125 C 2.734375 -4.8125 2.070312 -5.160156 1.6875 -5.578125 C 1.3125 -6.003906 1.125 -6.585938 1.125 -7.328125 C 1.125 -8.160156 1.414062 -8.804688 2 -9.265625 C 2.59375 -9.722656 3.421875 -9.953125 4.484375 -9.953125 C 4.941406 -9.953125 5.441406 -9.898438 5.984375 -9.796875 C 6.523438 -9.703125 7.101562 -9.5625 7.71875 -9.375 L 7.71875 -7.296875 L 6.96875 -7.296875 C 6.894531 -7.984375 6.664062 -8.476562 6.28125 -8.78125 C 5.894531 -9.09375 5.304688 -9.25 4.515625 -9.25 C 3.828125 -9.25 3.300781 -9.109375 2.9375 -8.828125 C 2.582031 -8.546875 2.40625 -8.132812 2.40625 -7.59375 C 2.40625 -7.132812 2.539062 -6.769531 2.8125 -6.5 C 3.082031 -6.226562 3.65625 -5.960938 4.53125 -5.703125 L 5.734375 -5.34375 C 6.617188 -5.082031 7.25 -4.742188 7.625 -4.328125 C 8.007812 -3.921875 8.203125 -3.367188 8.203125 -2.671875 C 8.203125 -1.722656 7.894531 -1.007812 7.28125 -0.53125 C 6.675781 -0.0507812 5.773438 0.1875 4.578125 0.1875 C 4.046875 0.1875 3.5 0.128906 2.9375 0.015625 C 2.382812 -0.0859375 1.820312 -0.25 1.25 -0.46875 Z M 1.25 -0.46875 "/>
</symbol>
<symbol overflow="visible" id="glyph0-2">
<path style="stroke:none;" d="M 0.546875 0 L 0.546875 -0.6875 L 1.640625 -0.6875 L 1.640625 -9.484375 L 0.484375 -9.484375 L 0.484375 -10.1875 L 2.84375 -10.1875 L 2.84375 -5.71875 C 3.0625 -6.1875 3.347656 -6.539062 3.703125 -6.78125 C 4.054688 -7.019531 4.472656 -7.140625 4.953125 -7.140625 C 5.710938 -7.140625 6.273438 -6.921875 6.640625 -6.484375 C 7.003906 -6.046875 7.1875 -5.359375 7.1875 -4.421875 L 7.1875 -0.6875 L 8.265625 -0.6875 L 8.265625 0 L 4.9375 0 L 4.9375 -0.6875 L 5.96875 -0.6875 L 5.96875 -4.046875 C 5.96875 -4.898438 5.863281 -5.484375 5.65625 -5.796875 C 5.457031 -6.109375 5.09375 -6.265625 4.5625 -6.265625 C 4 -6.265625 3.570312 -6.0625 3.28125 -5.65625 C 2.988281 -5.25 2.84375 -4.65625 2.84375 -3.875 L 2.84375 -0.6875 L 3.890625 -0.6875 L 3.890625 0 Z M 0.546875 0 "/>
</symbol>
<symbol overflow="visible" id="glyph0-3">
<path style="stroke:none;" d="M 4.03125 -0.453125 C 4.675781 -0.453125 5.160156 -0.707031 5.484375 -1.21875 C 5.816406 -1.726562 5.984375 -2.484375 5.984375 -3.484375 C 5.984375 -4.472656 5.816406 -5.222656 5.484375 -5.734375 C 5.160156 -6.242188 4.675781 -6.5 4.03125 -6.5 C 3.382812 -6.5 2.894531 -6.242188 2.5625 -5.734375 C 2.238281 -5.222656 2.078125 -4.472656 2.078125 -3.484375 C 2.078125 -2.484375 2.238281 -1.726562 2.5625 -1.21875 C 2.894531 -0.707031 3.382812 -0.453125 4.03125 -0.453125 Z M 4.03125 0.1875 C 3.019531 0.1875 2.207031 -0.144531 1.59375 -0.8125 C 0.976562 -1.476562 0.671875 -2.367188 0.671875 -3.484375 C 0.671875 -4.585938 0.972656 -5.472656 1.578125 -6.140625 C 2.191406 -6.804688 3.007812 -7.140625 4.03125 -7.140625 C 5.050781 -7.140625 5.863281 -6.804688 6.46875 -6.140625 C 7.082031 -5.472656 7.390625 -4.585938 7.390625 -3.484375 C 7.390625 -2.367188 7.082031 -1.476562 6.46875 -0.8125 C 5.863281 -0.144531 5.050781 0.1875 4.03125 0.1875 Z M 4.03125 0.1875 "/>
</symbol>
<symbol overflow="visible" id="glyph0-4">
<path style="stroke:none;" d="M 6.40625 -6.96875 L 6.40625 -5.234375 L 5.71875 -5.234375 C 5.695312 -5.578125 5.597656 -5.832031 5.421875 -6 C 5.253906 -6.175781 5.007812 -6.265625 4.6875 -6.265625 C 4.09375 -6.265625 3.632812 -6.054688 3.3125 -5.640625 C 3 -5.234375 2.84375 -4.644531 2.84375 -3.875 L 2.84375 -0.6875 L 4.234375 -0.6875 L 4.234375 0 L 0.546875 0 L 0.546875 -0.6875 L 1.640625 -0.6875 L 1.640625 -6.265625 L 0.484375 -6.265625 L 0.484375 -6.953125 L 2.84375 -6.953125 L 2.84375 -5.71875 C 3.070312 -6.207031 3.375 -6.566406 3.75 -6.796875 C 4.125 -7.023438 4.578125 -7.140625 5.109375 -7.140625 C 5.304688 -7.140625 5.507812 -7.125 5.71875 -7.09375 C 5.9375 -7.070312 6.164062 -7.03125 6.40625 -6.96875 Z M 6.40625 -6.96875 "/>
</symbol>
<symbol overflow="visible" id="glyph0-5">
<path style="stroke:none;" d="M 1.453125 -6.265625 L 0.390625 -6.265625 L 0.390625 -6.953125 L 1.453125 -6.953125 L 1.453125 -9.125 L 2.65625 -9.125 L 2.65625 -6.953125 L 4.921875 -6.953125 L 4.921875 -6.265625 L 2.65625 -6.265625 L 2.65625 -1.84375 C 2.65625 -1.25 2.710938 -0.867188 2.828125 -0.703125 C 2.941406 -0.535156 3.148438 -0.453125 3.453125 -0.453125 C 3.765625 -0.453125 3.992188 -0.546875 4.140625 -0.734375 C 4.285156 -0.921875 4.363281 -1.222656 4.375 -1.640625 L 5.28125 -1.640625 C 5.25 -1.003906 5.078125 -0.539062 4.765625 -0.25 C 4.453125 0.0390625 3.984375 0.1875 3.359375 0.1875 C 2.660156 0.1875 2.164062 0.0351562 1.875 -0.265625 C 1.59375 -0.578125 1.453125 -1.101562 1.453125 -1.84375 Z M 1.453125 -6.265625 "/>
</symbol>
<symbol overflow="visible" id="glyph0-6">
<path style="stroke:none;" d=""/>
</symbol>
<symbol overflow="visible" id="glyph0-7">
<path style="stroke:none;" d="M 6.4375 -6.953125 L 8.21875 -1.53125 L 9.78125 -6.265625 L 8.78125 -6.265625 L 8.78125 -6.953125 L 11.296875 -6.953125 L 11.296875 -6.265625 L 10.53125 -6.265625 L 8.453125 0 L 7.453125 0 L 5.734375 -5.203125 L 4.015625 0 L 3.0625 0 L 1 -6.265625 L 0.21875 -6.265625 L 0.21875 -6.953125 L 3.359375 -6.953125 L 3.359375 -6.265625 L 2.234375 -6.265625 L 3.796875 -1.53125 L 5.59375 -6.953125 Z M 6.4375 -6.953125 "/>
</symbol>
<symbol overflow="visible" id="glyph0-8">
<path style="stroke:none;" d="M 7.03125 -0.6875 L 8.1875 -0.6875 L 8.1875 0 L 5.828125 0 L 5.828125 -1.09375 C 5.597656 -0.65625 5.300781 -0.332031 4.9375 -0.125 C 4.570312 0.0820312 4.117188 0.1875 3.578125 0.1875 C 2.722656 0.1875 2.023438 -0.148438 1.484375 -0.828125 C 0.941406 -1.503906 0.671875 -2.390625 0.671875 -3.484375 C 0.671875 -4.578125 0.941406 -5.457031 1.484375 -6.125 C 2.023438 -6.800781 2.722656 -7.140625 3.578125 -7.140625 C 4.117188 -7.140625 4.570312 -7.035156 4.9375 -6.828125 C 5.300781 -6.628906 5.597656 -6.3125 5.828125 -5.875 L 5.828125 -9.484375 L 4.6875 -9.484375 L 4.6875 -10.1875 L 7.03125 -10.1875 Z M 5.828125 -3.140625 L 5.828125 -3.828125 C 5.828125 -4.660156 5.664062 -5.296875 5.34375 -5.734375 C 5.03125 -6.171875 4.566406 -6.390625 3.953125 -6.390625 C 3.335938 -6.390625 2.867188 -6.144531 2.546875 -5.65625 C 2.234375 -5.164062 2.078125 -4.441406 2.078125 -3.484375 C 2.078125 -2.523438 2.234375 -1.796875 2.546875 -1.296875 C 2.867188 -0.804688 3.335938 -0.5625 3.953125 -0.5625 C 4.566406 -0.5625 5.03125 -0.78125 5.34375 -1.21875 C 5.664062 -1.65625 5.828125 -2.296875 5.828125 -3.140625 Z M 5.828125 -3.140625 "/>
</symbol>
<symbol overflow="visible" id="glyph0-9">
<path style="stroke:none;" d="M 3.3125 -0.6875 L 4.53125 -0.6875 C 5.800781 -0.6875 6.773438 -1.046875 7.453125 -1.765625 C 8.128906 -2.492188 8.46875 -3.535156 8.46875 -4.890625 C 8.46875 -6.242188 8.128906 -7.28125 7.453125 -8 C 6.773438 -8.71875 5.800781 -9.078125 4.53125 -9.078125 L 3.3125 -9.078125 Z M 0.734375 0 L 0.734375 -0.6875 L 1.984375 -0.6875 L 1.984375 -9.078125 L 0.734375 -9.078125 L 0.734375 -9.765625 L 4.625 -9.765625 C 6.3125 -9.765625 7.625 -9.332031 8.5625 -8.46875 C 9.5 -7.613281 9.96875 -6.421875 9.96875 -4.890625 C 9.96875 -3.359375 9.492188 -2.160156 8.546875 -1.296875 C 7.609375 -0.429688 6.300781 0 4.625 0 Z M 0.734375 0 "/>
</symbol>
<symbol overflow="visible" id="glyph0-10">
<path style="stroke:none;" d="M 1.296875 -9.125 C 1.296875 -9.320312 1.367188 -9.492188 1.515625 -9.640625 C 1.660156 -9.785156 1.835938 -9.859375 2.046875 -9.859375 C 2.242188 -9.859375 2.414062 -9.785156 2.5625 -9.640625 C 2.707031 -9.492188 2.78125 -9.320312 2.78125 -9.125 C 2.78125 -8.914062 2.707031 -8.738281 2.5625 -8.59375 C 2.425781 -8.445312 2.253906 -8.375 2.046875 -8.375 C 1.835938 -8.375 1.660156 -8.445312 1.515625 -8.59375 C 1.367188 -8.738281 1.296875 -8.914062 1.296875 -9.125 Z M 2.84375 -0.6875 L 3.984375 -0.6875 L 3.984375 0 L 0.484375 0 L 0.484375 -0.6875 L 1.640625 -0.6875 L 1.640625 -6.265625 L 0.484375 -6.265625 L 0.484375 -6.953125 L 2.84375 -6.953125 Z M 2.84375 -0.6875 "/>
</symbol>
<symbol overflow="visible" id="glyph0-11">
<path style="stroke:none;" d="M 3.3125 0 L 0.75 -6.265625 L -0.046875 -6.265625 L -0.046875 -6.953125 L 3.15625 -6.953125 L 3.15625 -6.265625 L 2.046875 -6.265625 L 4 -1.46875 L 5.96875 -6.265625 L 4.921875 -6.265625 L 4.921875 -6.953125 L 7.53125 -6.953125 L 7.53125 -6.265625 L 6.75 -6.265625 L 4.203125 0 Z M 3.3125 0 "/>
</symbol>
<symbol overflow="visible" id="glyph0-12">
<path style="stroke:none;" d="M 0.546875 0 L 0.546875 -0.6875 L 1.640625 -0.6875 L 1.640625 -6.265625 L 0.484375 -6.265625 L 0.484375 -6.953125 L 2.84375 -6.953125 L 2.84375 -5.71875 C 3.0625 -6.1875 3.347656 -6.539062 3.703125 -6.78125 C 4.054688 -7.019531 4.472656 -7.140625 4.953125 -7.140625 C 5.710938 -7.140625 6.273438 -6.921875 6.640625 -6.484375 C 7.003906 -6.046875 7.1875 -5.359375 7.1875 -4.421875 L 7.1875 -0.6875 L 8.265625 -0.6875 L 8.265625 0 L 4.9375 0 L 4.9375 -0.6875 L 5.96875 -0.6875 L 5.96875 -4.046875 C 5.96875 -4.898438 5.863281 -5.484375 5.65625 -5.796875 C 5.445312 -6.109375 5.082031 -6.265625 4.5625 -6.265625 C 4 -6.265625 3.570312 -6.0625 3.28125 -5.65625 C 2.988281 -5.25 2.84375 -4.65625 2.84375 -3.875 L 2.84375 -0.6875 L 3.890625 -0.6875 L 3.890625 0 Z M 0.546875 0 "/>
</symbol>
<symbol overflow="visible" id="glyph0-13">
<path style="stroke:none;" d="M 7.265625 -3.359375 L 2.078125 -3.359375 L 2.078125 -3.296875 C 2.078125 -2.359375 2.253906 -1.648438 2.609375 -1.171875 C 2.960938 -0.691406 3.484375 -0.453125 4.171875 -0.453125 C 4.703125 -0.453125 5.132812 -0.59375 5.46875 -0.875 C 5.800781 -1.15625 6.035156 -1.566406 6.171875 -2.109375 L 7.140625 -2.109375 C 6.953125 -1.347656 6.597656 -0.773438 6.078125 -0.390625 C 5.566406 -0.00390625 4.890625 0.1875 4.046875 0.1875 C 3.023438 0.1875 2.207031 -0.144531 1.59375 -0.8125 C 0.976562 -1.476562 0.671875 -2.367188 0.671875 -3.484375 C 0.671875 -4.578125 0.972656 -5.457031 1.578125 -6.125 C 2.179688 -6.800781 2.976562 -7.140625 3.96875 -7.140625 C 5.019531 -7.140625 5.828125 -6.816406 6.390625 -6.171875 C 6.953125 -5.523438 7.242188 -4.585938 7.265625 -3.359375 Z M 5.84375 -4.046875 C 5.820312 -4.859375 5.648438 -5.46875 5.328125 -5.875 C 5.015625 -6.289062 4.5625 -6.5 3.96875 -6.5 C 3.414062 -6.5 2.976562 -6.289062 2.65625 -5.875 C 2.34375 -5.457031 2.148438 -4.847656 2.078125 -4.046875 Z M 5.84375 -4.046875 "/>
</symbol>
<symbol overflow="visible" id="glyph0-14">
<path style="stroke:none;" d="M 6.421875 -4.84375 C 6.722656 -4.757812 6.984375 -4.617188 7.203125 -4.421875 C 7.429688 -4.222656 7.628906 -3.945312 7.796875 -3.59375 L 9.21875 -0.6875 L 10.421875 -0.6875 L 10.421875 0 L 8.109375 0 L 6.578125 -3.109375 C 6.285156 -3.710938 6.015625 -4.101562 5.765625 -4.28125 C 5.523438 -4.457031 5.191406 -4.546875 4.765625 -4.546875 L 3.3125 -4.546875 L 3.3125 -0.6875 L 4.6875 -0.6875 L 4.6875 0 L 0.734375 0 L 0.734375 -0.6875 L 1.984375 -0.6875 L 1.984375 -9.078125 L 0.734375 -9.078125 L 0.734375 -9.765625 L 5.6875 -9.765625 C 6.644531 -9.765625 7.378906 -9.535156 7.890625 -9.078125 C 8.410156 -8.628906 8.671875 -7.988281 8.671875 -7.15625 C 8.671875 -6.488281 8.484375 -5.960938 8.109375 -5.578125 C 7.734375 -5.191406 7.171875 -4.945312 6.421875 -4.84375 Z M 3.3125 -5.25 L 5.25 -5.25 C 5.90625 -5.25 6.390625 -5.398438 6.703125 -5.703125 C 7.015625 -6.015625 7.171875 -6.5 7.171875 -7.15625 C 7.171875 -7.8125 7.015625 -8.296875 6.703125 -8.609375 C 6.390625 -8.921875 5.90625 -9.078125 5.25 -9.078125 L 3.3125 -9.078125 Z M 3.3125 -5.25 "/>
</symbol>
<symbol overflow="visible" id="glyph0-15">
<path style="stroke:none;" d="M 1.546875 -0.6875 L 1.546875 -9.484375 L 0.390625 -9.484375 L 0.390625 -10.1875 L 2.75 -10.1875 L 2.75 -5.875 C 2.988281 -6.3125 3.289062 -6.628906 3.65625 -6.828125 C 4.019531 -7.035156 4.46875 -7.140625 5 -7.140625 C 5.851562 -7.140625 6.550781 -6.800781 7.09375 -6.125 C 7.632812 -5.457031 7.90625 -4.578125 7.90625 -3.484375 C 7.90625 -2.390625 7.632812 -1.503906 7.09375 -0.828125 C 6.550781 -0.148438 5.851562 0.1875 5 0.1875 C 4.46875 0.1875 4.019531 0.0820312 3.65625 -0.125 C 3.289062 -0.332031 2.988281 -0.65625 2.75 -1.09375 L 2.75 0 L 0.390625 0 L 0.390625 -0.6875 Z M 2.75 -3.140625 C 2.75 -2.296875 2.910156 -1.65625 3.234375 -1.21875 C 3.554688 -0.78125 4.019531 -0.5625 4.625 -0.5625 C 5.238281 -0.5625 5.703125 -0.804688 6.015625 -1.296875 C 6.335938 -1.796875 6.5 -2.523438 6.5 -3.484375 C 6.5 -4.441406 6.335938 -5.164062 6.015625 -5.65625 C 5.703125 -6.144531 5.238281 -6.390625 4.625 -6.390625 C 4.019531 -6.390625 3.554688 -6.171875 3.234375 -5.734375 C 2.910156 -5.296875 2.75 -4.660156 2.75 -3.828125 Z M 2.75 -3.140625 "/>
</symbol>
<symbol overflow="visible" id="glyph0-16">
<path style="stroke:none;" d="M 5.765625 -8.546875 L 5.125 -8.546875 C 5.125 -8.867188 5.03125 -9.113281 4.84375 -9.28125 C 4.664062 -9.457031 4.40625 -9.546875 4.0625 -9.546875 C 3.613281 -9.546875 3.296875 -9.421875 3.109375 -9.171875 C 2.929688 -8.921875 2.84375 -8.484375 2.84375 -7.859375 L 2.84375 -6.953125 L 4.78125 -6.953125 L 4.78125 -6.265625 L 2.84375 -6.265625 L 2.84375 -0.6875 L 4.390625 -0.6875 L 4.390625 0 L 0.484375 0 L 0.484375 -0.6875 L 1.640625 -0.6875 L 1.640625 -6.265625 L 0.484375 -6.265625 L 0.484375 -6.953125 L 1.640625 -6.953125 L 1.640625 -7.828125 C 1.640625 -8.609375 1.835938 -9.195312 2.234375 -9.59375 C 2.640625 -9.988281 3.234375 -10.1875 4.015625 -10.1875 C 4.304688 -10.1875 4.597656 -10.160156 4.890625 -10.109375 C 5.179688 -10.054688 5.472656 -9.972656 5.765625 -9.859375 Z M 5.765625 -8.546875 "/>
</symbol>
<symbol overflow="visible" id="glyph0-17">
<path style="stroke:none;" d="M 0.734375 0 L 0.734375 -0.6875 L 1.984375 -0.6875 L 1.984375 -9.078125 L 0.734375 -9.078125 L 0.734375 -9.765625 L 8.734375 -9.765625 L 8.734375 -7.59375 L 7.9375 -7.59375 L 7.9375 -8.96875 L 3.3125 -8.96875 L 3.3125 -5.6875 L 6.65625 -5.6875 L 6.65625 -6.921875 L 7.453125 -6.921875 L 7.453125 -3.671875 L 6.65625 -3.671875 L 6.65625 -4.890625 L 3.3125 -4.890625 L 3.3125 -0.6875 L 4.875 -0.6875 L 4.875 0 Z M 0.734375 0 "/>
</symbol>
<symbol overflow="visible" id="glyph0-18">
<path style="stroke:none;" d="M 3.90625 -4.25 L 5.359375 -6.265625 L 4.421875 -6.265625 L 4.421875 -6.953125 L 7.109375 -6.953125 L 7.109375 -6.265625 L 6.171875 -6.265625 L 4.3125 -3.6875 L 6.484375 -0.6875 L 7.390625 -0.6875 L 7.390625 0 L 4.1875 0 L 4.1875 -0.6875 L 5.0625 -0.6875 L 3.546875 -2.78125 L 2.03125 -0.6875 L 2.9375 -0.6875 L 2.9375 0 L 0.296875 0 L 0.296875 -0.6875 L 1.21875 -0.6875 L 3.140625 -3.34375 L 1.015625 -6.265625 L 0.15625 -6.265625 L 0.15625 -6.953125 L 3.265625 -6.953125 L 3.265625 -6.265625 L 2.4375 -6.265625 Z M 3.90625 -4.25 "/>
</symbol>
<symbol overflow="visible" id="glyph0-19">
<path style="stroke:none;" d="M 0.734375 0 L 0.734375 -0.6875 L 1.984375 -0.6875 L 1.984375 -9.078125 L 0.734375 -9.078125 L 0.734375 -9.765625 L 4.5625 -9.765625 L 4.5625 -9.078125 L 3.3125 -9.078125 L 3.3125 -5.6875 L 8.375 -5.6875 L 8.375 -9.078125 L 7.140625 -9.078125 L 7.140625 -9.765625 L 10.953125 -9.765625 L 10.953125 -9.078125 L 9.703125 -9.078125 L 9.703125 -0.6875 L 10.953125 -0.6875 L 10.953125 0 L 7.140625 0 L 7.140625 -0.6875 L 8.375 -0.6875 L 8.375 -4.890625 L 3.3125 -4.890625 L 3.3125 -0.6875 L 4.5625 -0.6875 L 4.5625 0 Z M 0.734375 0 "/>
</symbol>
<symbol overflow="visible" id="glyph0-20">
<path style="stroke:none;" d="M 3.3125 -4.96875 L 5.046875 -4.96875 C 5.691406 -4.96875 6.179688 -5.144531 6.515625 -5.5 C 6.859375 -5.851562 7.03125 -6.363281 7.03125 -7.03125 C 7.03125 -7.695312 6.859375 -8.203125 6.515625 -8.546875 C 6.179688 -8.898438 5.691406 -9.078125 5.046875 -9.078125 L 3.3125 -9.078125 Z M 0.734375 0 L 0.734375 -0.6875 L 1.984375 -0.6875 L 1.984375 -9.078125 L 0.734375 -9.078125 L 0.734375 -9.765625 L 5.359375 -9.765625 C 6.335938 -9.765625 7.113281 -9.515625 7.6875 -9.015625 C 8.257812 -8.523438 8.546875 -7.863281 8.546875 -7.03125 C 8.546875 -6.1875 8.257812 -5.515625 7.6875 -5.015625 C 7.113281 -4.523438 6.335938 -4.28125 5.359375 -4.28125 L 3.3125 -4.28125 L 3.3125 -0.6875 L 4.828125 -0.6875 L 4.828125 0 Z M 0.734375 0 "/>
</symbol>
<symbol overflow="visible" id="glyph0-21">
<path style="stroke:none;" d="M 2.75 -0.6875 L 3.890625 -0.6875 L 3.890625 0 L 0.390625 0 L 0.390625 -0.6875 L 1.546875 -0.6875 L 1.546875 -9.484375 L 0.390625 -9.484375 L 0.390625 -10.1875 L 2.75 -10.1875 Z M 2.75 -0.6875 "/>
</symbol>
<symbol overflow="visible" id="glyph0-22">
<path style="stroke:none;" d="M 5.328125 -2.1875 L 5.328125 -3.65625 L 3.78125 -3.65625 C 3.1875 -3.65625 2.742188 -3.523438 2.453125 -3.265625 C 2.160156 -3.015625 2.015625 -2.625 2.015625 -2.09375 C 2.015625 -1.601562 2.160156 -1.21875 2.453125 -0.9375 C 2.753906 -0.65625 3.15625 -0.515625 3.65625 -0.515625 C 4.15625 -0.515625 4.554688 -0.664062 4.859375 -0.96875 C 5.171875 -1.28125 5.328125 -1.6875 5.328125 -2.1875 Z M 6.546875 -4.34375 L 6.546875 -0.6875 L 7.609375 -0.6875 L 7.609375 0 L 5.328125 0 L 5.328125 -0.75 C 5.066406 -0.425781 4.757812 -0.1875 4.40625 -0.03125 C 4.0625 0.113281 3.65625 0.1875 3.1875 0.1875 C 2.414062 0.1875 1.800781 -0.015625 1.34375 -0.421875 C 0.894531 -0.835938 0.671875 -1.394531 0.671875 -2.09375 C 0.671875 -2.8125 0.925781 -3.367188 1.4375 -3.765625 C 1.957031 -4.160156 2.691406 -4.359375 3.640625 -4.359375 L 5.328125 -4.359375 L 5.328125 -4.84375 C 5.328125 -5.363281 5.164062 -5.769531 4.84375 -6.0625 C 4.53125 -6.351562 4.082031 -6.5 3.5 -6.5 C 3.019531 -6.5 2.640625 -6.390625 2.359375 -6.171875 C 2.078125 -5.953125 1.898438 -5.628906 1.828125 -5.203125 L 1.203125 -5.203125 L 1.203125 -6.609375 C 1.617188 -6.785156 2.023438 -6.914062 2.421875 -7 C 2.816406 -7.09375 3.203125 -7.140625 3.578125 -7.140625 C 4.546875 -7.140625 5.28125 -6.898438 5.78125 -6.421875 C 6.289062 -5.953125 6.546875 -5.257812 6.546875 -4.34375 Z M 6.546875 -4.34375 "/>
</symbol>
<symbol overflow="visible" id="glyph0-23">
<path style="stroke:none;" d="M 3.3125 -0.6875 L 5.265625 -0.6875 C 6.054688 -0.6875 6.628906 -0.859375 6.984375 -1.203125 C 7.347656 -1.546875 7.53125 -2.085938 7.53125 -2.828125 C 7.53125 -3.566406 7.347656 -4.101562 6.984375 -4.4375 C 6.628906 -4.78125 6.054688 -4.953125 5.265625 -4.953125 L 3.3125 -4.953125 Z M 3.3125 -5.640625 L 4.96875 -5.640625 C 5.6875 -5.640625 6.207031 -5.773438 6.53125 -6.046875 C 6.863281 -6.328125 7.03125 -6.765625 7.03125 -7.359375 C 7.03125 -7.953125 6.863281 -8.382812 6.53125 -8.65625 C 6.207031 -8.9375 5.6875 -9.078125 4.96875 -9.078125 L 3.3125 -9.078125 Z M 0.734375 0 L 0.734375 -0.6875 L 1.984375 -0.6875 L 1.984375 -9.078125 L 0.734375 -9.078125 L 0.734375 -9.765625 L 5.5625 -9.765625 C 6.550781 -9.765625 7.296875 -9.5625 7.796875 -9.15625 C 8.296875 -8.757812 8.546875 -8.160156 8.546875 -7.359375 C 8.546875 -6.773438 8.367188 -6.3125 8.015625 -5.96875 C 7.671875 -5.625 7.164062 -5.410156 6.5 -5.328125 C 7.332031 -5.222656 7.960938 -4.957031 8.390625 -4.53125 C 8.816406 -4.113281 9.03125 -3.546875 9.03125 -2.828125 C 9.03125 -1.859375 8.722656 -1.144531 8.109375 -0.6875 C 7.503906 -0.226562 6.550781 0 5.25 0 Z M 0.734375 0 "/>
</symbol>
<symbol overflow="visible" id="glyph0-24">
<path style="stroke:none;" d="M 2.75 -3.828125 L 2.75 -3.140625 C 2.75 -2.296875 2.910156 -1.65625 3.234375 -1.21875 C 3.554688 -0.78125 4.019531 -0.5625 4.625 -0.5625 C 5.238281 -0.5625 5.703125 -0.804688 6.015625 -1.296875 C 6.335938 -1.796875 6.5 -2.523438 6.5 -3.484375 C 6.5 -4.441406 6.335938 -5.164062 6.015625 -5.65625 C 5.703125 -6.144531 5.238281 -6.390625 4.625 -6.390625 C 4.019531 -6.390625 3.554688 -6.171875 3.234375 -5.734375 C 2.910156 -5.296875 2.75 -4.660156 2.75 -3.828125 Z M 1.546875 -6.265625 L 0.390625 -6.265625 L 0.390625 -6.953125 L 2.75 -6.953125 L 2.75 -5.875 C 2.988281 -6.3125 3.289062 -6.628906 3.65625 -6.828125 C 4.019531 -7.035156 4.46875 -7.140625 5 -7.140625 C 5.851562 -7.140625 6.550781 -6.800781 7.09375 -6.125 C 7.632812 -5.457031 7.90625 -4.578125 7.90625 -3.484375 C 7.90625 -2.390625 7.632812 -1.503906 7.09375 -0.828125 C 6.550781 -0.148438 5.851562 0.1875 5 0.1875 C 4.46875 0.1875 4.019531 0.0820312 3.65625 -0.125 C 3.289062 -0.332031 2.988281 -0.65625 2.75 -1.09375 L 2.75 2.09375 L 3.890625 2.09375 L 3.890625 2.78125 L 0.390625 2.78125 L 0.390625 2.09375 L 1.546875 2.09375 Z M 1.546875 -6.265625 "/>
</symbol>
<symbol overflow="visible" id="glyph0-25">
<path style="stroke:none;" d="M 0.75 -0.390625 L 0.75 -2.015625 L 1.453125 -2.015625 C 1.460938 -1.492188 1.617188 -1.101562 1.921875 -0.84375 C 2.234375 -0.582031 2.691406 -0.453125 3.296875 -0.453125 C 3.835938 -0.453125 4.25 -0.550781 4.53125 -0.75 C 4.820312 -0.957031 4.96875 -1.257812 4.96875 -1.65625 C 4.96875 -1.957031 4.863281 -2.203125 4.65625 -2.390625 C 4.445312 -2.578125 4.007812 -2.773438 3.34375 -2.984375 L 2.46875 -3.28125 C 1.875 -3.476562 1.441406 -3.71875 1.171875 -4 C 0.898438 -4.289062 0.765625 -4.660156 0.765625 -5.109375 C 0.765625 -5.742188 1 -6.238281 1.46875 -6.59375 C 1.9375 -6.957031 2.582031 -7.140625 3.40625 -7.140625 C 3.769531 -7.140625 4.15625 -7.09375 4.5625 -7 C 4.96875 -6.90625 5.382812 -6.765625 5.8125 -6.578125 L 5.8125 -5.0625 L 5.125 -5.0625 C 5.101562 -5.507812 4.941406 -5.859375 4.640625 -6.109375 C 4.347656 -6.367188 3.945312 -6.5 3.4375 -6.5 C 2.9375 -6.5 2.554688 -6.410156 2.296875 -6.234375 C 2.035156 -6.054688 1.90625 -5.785156 1.90625 -5.421875 C 1.90625 -5.128906 2.003906 -4.894531 2.203125 -4.71875 C 2.398438 -4.539062 2.789062 -4.363281 3.375 -4.1875 L 4.328125 -3.890625 C 4.992188 -3.679688 5.46875 -3.421875 5.75 -3.109375 C 6.039062 -2.804688 6.1875 -2.414062 6.1875 -1.9375 C 6.1875 -1.269531 5.9375 -0.75 5.4375 -0.375 C 4.9375 0 4.242188 0.1875 3.359375 0.1875 C 2.898438 0.1875 2.457031 0.140625 2.03125 0.046875 C 1.601562 -0.046875 1.175781 -0.191406 0.75 -0.390625 Z M 0.75 -0.390625 "/>
</symbol>
<symbol overflow="visible" id="glyph0-26">
<path style="stroke:none;" d="M 9.453125 -2.578125 C 9.160156 -1.671875 8.675781 -0.984375 8 -0.515625 C 7.320312 -0.046875 6.460938 0.1875 5.421875 0.1875 C 4.785156 0.1875 4.191406 0.078125 3.640625 -0.140625 C 3.097656 -0.359375 2.617188 -0.675781 2.203125 -1.09375 C 1.710938 -1.582031 1.347656 -2.140625 1.109375 -2.765625 C 0.867188 -3.390625 0.75 -4.09375 0.75 -4.875 C 0.75 -6.394531 1.1875 -7.617188 2.0625 -8.546875 C 2.945312 -9.484375 4.101562 -9.953125 5.53125 -9.953125 C 6.070312 -9.953125 6.640625 -9.878906 7.234375 -9.734375 C 7.835938 -9.597656 8.488281 -9.390625 9.1875 -9.109375 L 9.1875 -6.859375 L 8.4375 -6.859375 C 8.28125 -7.671875 7.957031 -8.269531 7.46875 -8.65625 C 6.988281 -9.050781 6.304688 -9.25 5.421875 -9.25 C 4.378906 -9.25 3.585938 -8.878906 3.046875 -8.140625 C 2.515625 -7.398438 2.25 -6.3125 2.25 -4.875 C 2.25 -3.445312 2.515625 -2.363281 3.046875 -1.625 C 3.585938 -0.882812 4.378906 -0.515625 5.421875 -0.515625 C 6.148438 -0.515625 6.75 -0.6875 7.21875 -1.03125 C 7.695312 -1.375 8.039062 -1.890625 8.25 -2.578125 Z M 9.453125 -2.578125 "/>
</symbol>
<symbol overflow="visible" id="glyph0-27">
<path style="stroke:none;" d="M 8.578125 -6.859375 C 8.429688 -7.671875 8.113281 -8.269531 7.625 -8.65625 C 7.144531 -9.050781 6.472656 -9.25 5.609375 -9.25 C 4.484375 -9.25 3.640625 -8.882812 3.078125 -8.15625 C 2.523438 -7.4375 2.25 -6.34375 2.25 -4.875 C 2.25 -3.4375 2.535156 -2.347656 3.109375 -1.609375 C 3.679688 -0.878906 4.519531 -0.515625 5.625 -0.515625 C 6.125 -0.515625 6.597656 -0.570312 7.046875 -0.6875 C 7.492188 -0.8125 7.921875 -1 8.328125 -1.25 L 8.328125 -3.765625 L 6.484375 -3.765625 L 6.484375 -4.46875 L 9.65625 -4.46875 L 9.65625 -0.8125 C 9.070312 -0.476562 8.445312 -0.226562 7.78125 -0.0625 C 7.113281 0.101562 6.394531 0.1875 5.625 0.1875 C 4.15625 0.1875 2.972656 -0.269531 2.078125 -1.1875 C 1.191406 -2.113281 0.75 -3.34375 0.75 -4.875 C 0.75 -6.414062 1.191406 -7.644531 2.078125 -8.5625 C 2.972656 -9.488281 4.175781 -9.953125 5.6875 -9.953125 C 6.238281 -9.953125 6.8125 -9.882812 7.40625 -9.75 C 8.007812 -9.625 8.644531 -9.429688 9.3125 -9.171875 L 9.3125 -6.859375 Z M 8.578125 -6.859375 "/>
</symbol>
<symbol overflow="visible" id="glyph0-28">
<path style="stroke:none;" d="M 0.65625 0 L 0.65625 -0.6875 L 1.96875 -0.6875 L 1.96875 -9.078125 L 0.65625 -9.078125 L 0.65625 -9.765625 L 3.15625 -9.765625 L 9.015625 -2.0625 L 9.015625 -9.078125 L 7.71875 -9.078125 L 7.71875 -9.765625 L 11.140625 -9.765625 L 11.140625 -9.078125 L 9.828125 -9.078125 L 9.828125 0.1875 L 9.03125 0.1875 L 2.78125 -8.046875 L 2.78125 -0.6875 L 4.09375 -0.6875 L 4.09375 0 Z M 0.65625 0 "/>
</symbol>
<symbol overflow="visible" id="glyph0-29">
<path style="stroke:none;" d="M 6.890625 -2.09375 C 6.722656 -1.34375 6.394531 -0.773438 5.90625 -0.390625 C 5.425781 -0.00390625 4.800781 0.1875 4.03125 0.1875 C 3.019531 0.1875 2.207031 -0.144531 1.59375 -0.8125 C 0.976562 -1.476562 0.671875 -2.367188 0.671875 -3.484375 C 0.671875 -4.597656 0.976562 -5.484375 1.59375 -6.140625 C 2.207031 -6.804688 3.019531 -7.140625 4.03125 -7.140625 C 4.46875 -7.140625 4.90625 -7.085938 5.34375 -6.984375 C 5.78125 -6.890625 6.21875 -6.738281 6.65625 -6.53125 L 6.65625 -4.75 L 5.96875 -4.75 C 5.875 -5.351562 5.671875 -5.796875 5.359375 -6.078125 C 5.054688 -6.359375 4.617188 -6.5 4.046875 -6.5 C 3.390625 -6.5 2.894531 -6.242188 2.5625 -5.734375 C 2.238281 -5.234375 2.078125 -4.484375 2.078125 -3.484375 C 2.078125 -2.484375 2.238281 -1.726562 2.5625 -1.21875 C 2.894531 -0.707031 3.390625 -0.453125 4.046875 -0.453125 C 4.566406 -0.453125 4.976562 -0.585938 5.28125 -0.859375 C 5.59375 -1.128906 5.804688 -1.539062 5.921875 -2.09375 Z M 6.890625 -2.09375 "/>
</symbol>
<symbol overflow="visible" id="glyph0-30">
<path style="stroke:none;" d="M 3.84375 0 L 0.453125 0 L 0.453125 -0.6875 L 1.546875 -0.6875 L 1.546875 -9.484375 L 0.390625 -9.484375 L 0.390625 -10.1875 L 2.75 -10.1875 L 2.75 -3.546875 L 5.6875 -6.265625 L 4.6875 -6.265625 L 4.6875 -6.953125 L 7.828125 -6.953125 L 7.828125 -6.265625 L 6.640625 -6.265625 L 4.5625 -4.34375 L 7.21875 -0.6875 L 8.21875 -0.6875 L 8.21875 0 L 4.78125 0 L 4.78125 -0.6875 L 5.78125 -0.6875 L 3.703125 -3.546875 L 2.75 -2.671875 L 2.75 -0.6875 L 3.84375 -0.6875 Z M 3.84375 0 "/>
</symbol>
<symbol overflow="visible" id="glyph0-31">
<path style="stroke:none;" d="M 2.5625 0 L 2.5625 -0.6875 L 3.8125 -0.6875 L 3.8125 -9 L 0.9375 -9 L 0.9375 -7.46875 L 0.125 -7.46875 L 0.125 -9.765625 L 8.8125 -9.765625 L 8.8125 -7.46875 L 8 -7.46875 L 8 -9 L 5.125 -9 L 5.125 -0.6875 L 6.375 -0.6875 L 6.375 0 Z M 2.5625 0 "/>
</symbol>
<symbol overflow="visible" id="glyph0-32">
<path style="stroke:none;" d="M 4.75 -6.953125 L 7 -6.953125 L 7 -0.6875 L 8.140625 -0.6875 L 8.140625 0 L 5.796875 0 L 5.796875 -1.234375 C 5.566406 -0.765625 5.273438 -0.410156 4.921875 -0.171875 C 4.578125 0.0664062 4.171875 0.1875 3.703125 0.1875 C 2.929688 0.1875 2.363281 -0.03125 2 -0.46875 C 1.632812 -0.90625 1.453125 -1.59375 1.453125 -2.53125 L 1.453125 -6.265625 L 0.359375 -6.265625 L 0.359375 -6.953125 L 2.65625 -6.953125 L 2.65625 -2.90625 C 2.65625 -2.0625 2.757812 -1.476562 2.96875 -1.15625 C 3.175781 -0.84375 3.546875 -0.6875 4.078125 -0.6875 C 4.640625 -0.6875 5.066406 -0.890625 5.359375 -1.296875 C 5.648438 -1.710938 5.796875 -2.3125 5.796875 -3.09375 L 5.796875 -6.265625 L 4.75 -6.265625 Z M 4.75 -6.953125 "/>
</symbol>
<symbol overflow="visible" id="glyph0-33">
<path style="stroke:none;" d="M 6.953125 -5.609375 C 7.179688 -6.117188 7.472656 -6.5 7.828125 -6.75 C 8.191406 -7.007812 8.613281 -7.140625 9.09375 -7.140625 C 9.820312 -7.140625 10.363281 -6.914062 10.71875 -6.46875 C 11.082031 -6.019531 11.265625 -5.335938 11.265625 -4.421875 L 11.265625 -0.6875 L 12.34375 -0.6875 L 12.34375 0 L 9 0 L 9 -0.6875 L 10.0625 -0.6875 L 10.0625 -4.28125 C 10.0625 -5 9.953125 -5.507812 9.734375 -5.8125 C 9.523438 -6.113281 9.179688 -6.265625 8.703125 -6.265625 C 8.160156 -6.265625 7.75 -6.0625 7.46875 -5.65625 C 7.1875 -5.25 7.046875 -4.65625 7.046875 -3.875 L 7.046875 -0.6875 L 8.09375 -0.6875 L 8.09375 0 L 4.796875 0 L 4.796875 -0.6875 L 5.84375 -0.6875 L 5.84375 -4.328125 C 5.84375 -5.023438 5.738281 -5.519531 5.53125 -5.8125 C 5.320312 -6.113281 4.972656 -6.265625 4.484375 -6.265625 C 3.953125 -6.265625 3.546875 -6.0625 3.265625 -5.65625 C 2.984375 -5.25 2.84375 -4.65625 2.84375 -3.875 L 2.84375 -0.6875 L 3.890625 -0.6875 L 3.890625 0 L 0.546875 0 L 0.546875 -0.6875 L 1.640625 -0.6875 L 1.640625 -6.265625 L 0.484375 -6.265625 L 0.484375 -6.953125 L 2.84375 -6.953125 L 2.84375 -5.71875 C 3.0625 -6.1875 3.34375 -6.539062 3.6875 -6.78125 C 4.03125 -7.019531 4.421875 -7.140625 4.859375 -7.140625 C 5.398438 -7.140625 5.851562 -7.003906 6.21875 -6.734375 C 6.582031 -6.472656 6.828125 -6.097656 6.953125 -5.609375 Z M 6.953125 -5.609375 "/>
</symbol>
<symbol overflow="visible" id="glyph0-34">
<path style="stroke:none;" d="M 7.03125 -6.265625 L 7.03125 -0.15625 C 7.03125 0.84375 6.753906 1.613281 6.203125 2.15625 C 5.660156 2.707031 4.878906 2.984375 3.859375 2.984375 C 3.398438 2.984375 2.960938 2.941406 2.546875 2.859375 C 2.128906 2.773438 1.726562 2.648438 1.34375 2.484375 L 1.34375 1.015625 L 1.96875 1.015625 C 2.050781 1.472656 2.238281 1.804688 2.53125 2.015625 C 2.820312 2.222656 3.238281 2.328125 3.78125 2.328125 C 4.488281 2.328125 5.003906 2.125 5.328125 1.71875 C 5.660156 1.320312 5.828125 0.695312 5.828125 -0.15625 L 5.828125 -1.09375 C 5.597656 -0.65625 5.300781 -0.332031 4.9375 -0.125 C 4.570312 0.0820312 4.117188 0.1875 3.578125 0.1875 C 2.722656 0.1875 2.023438 -0.148438 1.484375 -0.828125 C 0.941406 -1.503906 0.671875 -2.390625 0.671875 -3.484375 C 0.671875 -4.578125 0.941406 -5.457031 1.484375 -6.125 C 2.023438 -6.800781 2.722656 -7.140625 3.578125 -7.140625 C 4.117188 -7.140625 4.570312 -7.035156 4.9375 -6.828125 C 5.300781 -6.628906 5.597656 -6.3125 5.828125 -5.875 L 5.828125 -6.953125 L 8.1875 -6.953125 L 8.1875 -6.265625 Z M 5.828125 -3.828125 C 5.828125 -4.660156 5.664062 -5.296875 5.34375 -5.734375 C 5.03125 -6.171875 4.566406 -6.390625 3.953125 -6.390625 C 3.335938 -6.390625 2.867188 -6.144531 2.546875 -5.65625 C 2.234375 -5.164062 2.078125 -4.441406 2.078125 -3.484375 C 2.078125 -2.523438 2.234375 -1.796875 2.546875 -1.296875 C 2.867188 -0.804688 3.335938 -0.5625 3.953125 -0.5625 C 4.566406 -0.5625 5.03125 -0.78125 5.34375 -1.21875 C 5.664062 -1.65625 5.828125 -2.296875 5.828125 -3.140625 Z M 5.828125 -3.828125 "/>
</symbol>
</g>
</defs>
<g id="surface1">
<rect x="0" y="0" width="335" height="335" style="fill:rgb(0%,0%,0%);fill-opacity:1;stroke:none;"/>
<g style="fill:rgb(100%,100%,100%);fill-opacity:1;">
  <use xlink:href="#glyph0-1" x="9.570312" y="19.14428"/>
  <use xlink:href="#glyph0-2" x="18.750098" y="19.14428"/>
  <use xlink:href="#glyph0-3" x="27.380273" y="19.14428"/>
  <use xlink:href="#glyph0-4" x="35.447754" y="19.14428"/>
  <use xlink:href="#glyph0-5" x="41.85332" y="19.14428"/>
  <use xlink:href="#glyph0-6" x="47.238184" y="19.14428"/>
  <use xlink:href="#glyph0-1" x="51.497656" y="19.14428"/>
  <use xlink:href="#glyph0-7" x="60.677441" y="19.14428"/>
  <use xlink:href="#glyph0-3" x="72.146331" y="19.14428"/>
  <use xlink:href="#glyph0-4" x="80.213811" y="19.14428"/>
  <use xlink:href="#glyph0-8" x="86.619378" y="19.14428"/>
</g>
<g style="fill:rgb(100%,100%,100%);fill-opacity:1;">
  <use xlink:href="#glyph0-9" x="9.570312" y="38.284905"/>
  <use xlink:href="#glyph0-10" x="20.312932" y="38.284905"/>
  <use xlink:href="#glyph0-11" x="24.598577" y="38.284905"/>
  <use xlink:href="#glyph0-10" x="32.168792" y="38.284905"/>
  <use xlink:href="#glyph0-12" x="36.454436" y="38.284905"/>
  <use xlink:href="#glyph0-13" x="45.084612" y="38.284905"/>
  <use xlink:href="#glyph0-6" x="53.01469" y="38.284905"/>
  <use xlink:href="#glyph0-14" x="57.274163" y="38.284905"/>
  <use xlink:href="#glyph0-3" x="67.363421" y="38.284905"/>
  <use xlink:href="#glyph0-15" x="75.430901" y="38.284905"/>
  <use xlink:href="#glyph0-13" x="84.008733" y="38.284905"/>
  <use xlink:href="#glyph0-6" x="91.938811" y="38.284905"/>
  <use xlink:href="#glyph0-3" x="96.198284" y="38.284905"/>
  <use xlink:href="#glyph0-16" x="104.265765" y="38.284905"/>
  <use xlink:href="#glyph0-6" x="109.225335" y="38.284905"/>
  <use xlink:href="#glyph0-5" x="113.484807" y="38.284905"/>
  <use xlink:href="#glyph0-2" x="118.869671" y="38.284905"/>
  <use xlink:href="#glyph0-13" x="127.499847" y="38.284905"/>
  <use xlink:href="#glyph0-6" x="135.429925" y="38.284905"/>
  <use xlink:href="#glyph0-17" x="139.689397" y="38.284905"/>
  <use xlink:href="#glyph0-3" x="148.254143" y="38.284905"/>
  <use xlink:href="#glyph0-18" x="156.321624" y="38.284905"/>
</g>
<g style="fill:rgb(100%,100%,100%);fill-opacity:1;">
  <use xlink:href="#glyph0-19" x="9.570312" y="57.429436"/>
  <use xlink:href="#glyph0-3" x="21.25512" y="57.429436"/>
  <use xlink:href="#glyph0-3" x="29.3226" y="57.429436"/>
  <use xlink:href="#glyph0-8" x="37.390081" y="57.429436"/>
</g>
<g style="fill:rgb(100%,100%,100%);fill-opacity:1;">
  <use xlink:href="#glyph0-20" x="9.570312" y="76.570061"/>
  <use xlink:href="#glyph0-21" x="18.586523" y="76.570061"/>
  <use xlink:href="#glyph0-22" x="22.872168" y="76.570061"/>
  <use xlink:href="#glyph0-5" x="30.861133" y="76.570061"/>
  <use xlink:href="#glyph0-13" x="36.245996" y="76.570061"/>
  <use xlink:href="#glyph0-8" x="44.176074" y="76.570061"/>
  <use xlink:href="#glyph0-6" x="52.753906" y="76.570061"/>
  <use xlink:href="#glyph0-23" x="57.013379" y="76.570061"/>
  <use xlink:href="#glyph0-13" x="66.860547" y="76.570061"/>
  <use xlink:href="#glyph0-21" x="74.790625" y="76.570061"/>
  <use xlink:href="#glyph0-5" x="79.07627" y="76.570061"/>
</g>
<g style="fill:rgb(100%,100%,100%);fill-opacity:1;">
  <use xlink:href="#glyph0-9" x="9.570312" y="95.714593"/>
  <use xlink:href="#glyph0-10" x="20.312932" y="95.714593"/>
  <use xlink:href="#glyph0-11" x="24.598577" y="95.714593"/>
  <use xlink:href="#glyph0-10" x="32.168792" y="95.714593"/>
  <use xlink:href="#glyph0-12" x="36.454436" y="95.714593"/>
  <use xlink:href="#glyph0-13" x="45.084612" y="95.714593"/>
  <use xlink:href="#glyph0-6" x="53.01469" y="95.714593"/>
  <use xlink:href="#glyph0-1" x="57.274163" y="95.714593"/>
  <use xlink:href="#glyph0-21" x="66.453948" y="95.714593"/>
  <use xlink:href="#glyph0-10" x="70.739593" y="95.714593"/>
  <use xlink:href="#glyph0-24" x="75.025237" y="95.714593"/>
  <use xlink:href="#glyph0-24" x="83.603069" y="95.714593"/>
  <use xlink:href="#glyph0-13" x="92.180901" y="95.714593"/>
  <use xlink:href="#glyph0-4" x="100.110979" y="95.714593"/>
  <use xlink:href="#glyph0-25" x="106.516546" y="95.714593"/>
</g>
<g style="fill:rgb(100%,100%,100%);fill-opacity:1;">
  <use xlink:href="#glyph0-26" x="9.570312" y="114.855218"/>
  <use xlink:href="#glyph0-2" x="19.823145" y="114.855218"/>
  <use xlink:href="#glyph0-22" x="28.45332" y="114.855218"/>
  <use xlink:href="#glyph0-10" x="36.442285" y="114.855218"/>
  <use xlink:href="#glyph0-12" x="40.72793" y="114.855218"/>
  <use xlink:href="#glyph0-6" x="49.358105" y="114.855218"/>
  <use xlink:href="#glyph0-27" x="53.617578" y="114.855218"/>
  <use xlink:href="#glyph0-21" x="64.32094" y="114.855218"/>
  <use xlink:href="#glyph0-3" x="68.606585" y="114.855218"/>
  <use xlink:href="#glyph0-11" x="76.674065" y="114.855218"/>
  <use xlink:href="#glyph0-13" x="84.24428" y="114.855218"/>
  <use xlink:href="#glyph0-25" x="92.174358" y="114.855218"/>
</g>
<g style="fill:rgb(100%,100%,100%);fill-opacity:1;">
  <use xlink:href="#glyph0-28" x="9.570312" y="133.999749"/>
  <use xlink:href="#glyph0-13" x="21.294378" y="133.999749"/>
  <use xlink:href="#glyph0-29" x="29.224456" y="133.999749"/>
  <use xlink:href="#glyph0-30" x="36.729241" y="133.999749"/>
  <use xlink:href="#glyph0-21" x="44.849065" y="133.999749"/>
  <use xlink:href="#glyph0-22" x="49.13471" y="133.999749"/>
  <use xlink:href="#glyph0-29" x="57.123675" y="133.999749"/>
  <use xlink:href="#glyph0-13" x="64.62846" y="133.999749"/>
</g>
<g style="fill:rgb(100%,100%,100%);fill-opacity:1;">
  <use xlink:href="#glyph0-31" x="9.570312" y="153.14428"/>
  <use xlink:href="#glyph0-10" x="18.508008" y="153.14428"/>
  <use xlink:href="#glyph0-5" x="22.793652" y="153.14428"/>
  <use xlink:href="#glyph0-22" x="28.178516" y="153.14428"/>
  <use xlink:href="#glyph0-12" x="36.16748" y="153.14428"/>
  <use xlink:href="#glyph0-10" x="44.797656" y="153.14428"/>
  <use xlink:href="#glyph0-32" x="49.083301" y="153.14428"/>
  <use xlink:href="#glyph0-33" x="57.713477" y="153.14428"/>
  <use xlink:href="#glyph0-6" x="70.418987" y="153.14428"/>
  <use xlink:href="#glyph0-14" x="74.67846" y="153.14428"/>
  <use xlink:href="#glyph0-10" x="84.767718" y="153.14428"/>
  <use xlink:href="#glyph0-12" x="89.053362" y="153.14428"/>
  <use xlink:href="#glyph0-34" x="97.683538" y="153.14428"/>
</g>
</g>
</svg>
